<?xml version="1.0" standalone="no"?>
<!DOCTYPE svg PUBLIC "-//W3C//DTD SVG 20010904//EN"
 "http://www.w3.org/TR/2001/REC-SVG-20010904/DTD/svg10.dtd">
<svg version="1.0" xmlns="http://www.w3.org/2000/svg"
 width="512.000000pt" height="512.000000pt" viewBox="0 0 512.000000 512.000000"
 preserveAspectRatio="xMidYMid meet">
<metadata>
Created by potrace 1.14, written by Peter Selinger 2001-2017
</metadata>
<g transform="translate(0.000000,512.000000) scale(0.100000,-0.100000)"
fill="#000000" stroke="none">
<path d="M4150 4852 c-19 -2 -271 -48 -560 -103 -289 -54 -651 -122 -805 -151
l-280 -53 910 -5 c997 -6 954 -3 1030 -65 l30 -24 -160 -160 -159 -161 -26 25
c-14 13 -47 34 -75 47 l-50 23 -1700 0 -1700 0 -53 -24 c-69 -31 -137 -106
-157 -174 -13 -44 -15 -232 -15 -1453 0 -1377 0 -1404 20 -1456 23 -63 85
-128 150 -157 40 -18 66 -21 230 -21 l185 0 -155 -155 c-139 -139 -158 -155
-189 -155 l-33 0 7 -47 c13 -90 45 -155 104 -214 68 -68 141 -99 234 -99 38 0
376 59 867 151 443 83 823 150 845 150 22 0 407 -41 855 -91 501 -56 834 -89
863 -86 104 11 211 83 259 173 30 56 43 114 59 275 10 92 16 119 28 122 9 2
52 12 96 21 145 31 219 81 275 186 58 109 58 109 -79 831 l-120 637 70 633
c78 701 80 749 35 836 -59 116 -155 175 -316 194 l-100 12 -9 35 c-5 20 -19
88 -31 151 -25 136 -55 203 -114 258 -76 70 -170 103 -266 94z"/>
<path d="M717 4719 c-78 -18 -153 -70 -198 -136 l-30 -43 998 1 998 1 -835 94
c-459 51 -848 93 -865 93 -16 -1 -47 -5 -68 -10z"/>
<path d="M3 3790 c0 -30 2 -43 4 -27 2 15 2 39 0 55 -2 15 -4 2 -4 -28z"/>
</g>
</svg>
